<?xml version="1.0" standalone="no"?>
<!DOCTYPE svg PUBLIC "-//W3C//DTD SVG 20010904//EN"
 "http://www.w3.org/TR/2001/REC-SVG-20010904/DTD/svg10.dtd">
<svg version="1.0" xmlns="http://www.w3.org/2000/svg"
 width="301.000000pt" height="522.000000pt" viewBox="0 0 301.000000 522.000000"
 preserveAspectRatio="xMidYMid meet">

<g transform="translate(0.000000,522.000000) scale(0.100000,-0.100000)"
fill="#000000" stroke="none">
<path d="M631 5155 c-24 -32 -27 -76 -11 -236 26 -264 73 -479 132 -609 37
-80 84 -147 198 -285 55 -67 123 -190 145 -262 40 -132 27 -272 -33 -362 -30
-45 -58 -70 -147 -128 -203 -132 -259 -193 -396 -424 -188 -318 -325 -833
-344 -1294 -16 -369 39 -565 220 -790 53 -66 56 -122 7 -145 -15 -7 -55 -16
-90 -21 -95 -14 -124 -30 -187 -106 -75 -90 -125 -181 -125 -225 0 -69 55 -88
251 -88 l136 0 -4 -28 c-5 -37 25 -71 72 -82 22 -5 95 -10 162 -10 112 0 129
3 209 31 99 36 146 72 174 135 32 73 55 78 300 70 113 -4 214 -9 225 -12 17
-4 20 -12 17 -44 -6 -57 14 -106 51 -128 58 -36 399 -66 470 -43 47 16 57 35
57 110 l0 61 43 -6 c77 -10 89 -15 121 -48 38 -41 73 -51 229 -67 181 -18 256
-10 351 37 84 41 108 64 91 88 -6 7 -25 33 -43 56 -18 24 -35 54 -37 67 -3 13
-8 35 -11 50 -3 14 -37 59 -76 100 l-72 73 22 53 c36 87 51 165 62 322 5 83
13 189 17 237 19 270 -105 598 -315 830 -34 37 -69 82 -77 99 -12 21 -21 90
-31 227 -8 108 -16 205 -18 215 -3 13 23 39 92 94 178 142 216 194 261 355 33
117 32 185 -6 303 -17 55 -36 118 -42 140 -10 39 -71 143 -128 218 -79 104
-454 307 -644 348 l-45 10 -18 152 c-61 527 -125 691 -342 876 -70 60 -115 77
-154 61 -38 -16 -42 -42 -40 -289 1 -113 2 -210 1 -216 -1 -5 -21 23 -45 62
-99 161 -202 264 -382 385 -97 64 -155 95 -200 104 -26 5 -35 1 -53 -21z"/>
</g>
</svg>
